<?xml version="1.0" encoding="utf-8"?>
<!-- Generator: Adobe Illustrator 21.0.2, SVG Export Plug-In . SVG Version: 6.00 Build 0)  -->
<svg version="1.1" id="Layer_1" xmlns="http://www.w3.org/2000/svg" xmlns:xlink="http://www.w3.org/1999/xlink" x="0px" y="0px"
	 viewBox="0 0 48 48" style="enable-background:new 0 0 48 48;" xml:space="preserve">
<style type="text/css">
	.st0{fill:#FFFFFF;stroke:#FFFFFF;stroke-width:0.25;stroke-miterlimit:10;}
	.st1{fill:#FFFFFF;}
	.st2{fill:#FFFFFF;stroke:#FFFFFF;stroke-width:0.1;stroke-miterlimit:10;}
</style>
<g>
	<path class="st0" d="M40.9,33.4l-2.2-6.5c1.2-2.1,1.8-4.4,1.8-6.7c0-7.5-6.1-13.7-13.7-13.7c-5.3,0-10.2,3.1-12.4,8
		c-4.2,2.3-7,6.8-7,11.9c0,2.4,0.6,4.7,1.8,6.7L7,39.8C7,40,7,40.2,7.2,40.3c0.1,0.1,0.3,0.2,0.4,0.2c0,0,0.1,0,0.1,0l7.2-1.9
		c1.9,1,4,1.5,6.2,1.5c5.4,0,10-3.1,12.2-7.6l6.9,1.8c0.1,0,0.1,0,0.1,0c0,0,0,0,0,0c0.3,0,0.6-0.3,0.6-0.6
		C41,33.6,41,33.5,40.9,33.4z M21.1,38.9c-1.5,0-2.9-0.3-4.3-0.8c-1-0.4-1.3-0.6-1.5-0.7c0,0-0.2-0.1-0.5,0c0,0,0,0,0,0l-6.4,1.7
		l2-5.9c0.1-0.2,0-0.3-0.1-0.5c-1.1-1.9-1.8-4.1-1.8-6.4c0-4.9,2.8-9.2,6.9-11.2c0.1,0,0.1-0.1,0.2-0.1c0.1-0.1,0.2-0.1,0.4-0.2
		c0.1,0,0.2-0.1,0.3-0.1c0.1,0,0.2-0.1,0.3-0.1c0.2-0.1,0.3-0.1,0.5-0.2c0.1,0,0.1,0,0.2-0.1c0.2-0.1,0.5-0.1,0.7-0.2c0,0,0,0,0,0
		c0.2-0.1,0.4-0.1,0.7-0.1c0.1,0,0.1,0,0.1,0c0.2,0,0.4-0.1,0.6-0.1c0.1,0,0.1,0,0.2,0c0.2,0,0.4,0,0.5-0.1c0.1,0,0.1,0,0.2,0
		c0.2,0,0.5,0,0.7,0c6.9,0,12.5,5.6,12.5,12.5c0,0.2,0,0.4,0,0.7c0,0.1,0,0.2,0,0.3c0,0.1,0,0.2,0,0.3c0,0.1,0,0.2,0,0.4
		c0,0.1,0,0.2,0,0.3c0,0.1,0,0.2-0.1,0.4c0,0.1,0,0.2-0.1,0.3c0,0.1-0.1,0.2-0.1,0.3c0,0.1,0,0.2-0.1,0.3c0,0.1-0.1,0.2-0.1,0.3
		c0,0.1-0.1,0.2-0.1,0.3c0,0.1-0.1,0.2-0.1,0.3c0,0.1-0.1,0.2-0.1,0.4c0,0.1-0.1,0.2-0.1,0.2c0,0.1-0.1,0.2-0.1,0.4
		C30.6,35.8,26.2,38.9,21.1,38.9z M33.8,31.4C33.8,31.4,33.8,31.3,33.8,31.4c0.2-0.4,0.3-0.8,0.4-1.1c0-0.1,0-0.1,0.1-0.2
		c0.1-0.4,0.2-0.7,0.3-1.1c0-0.1,0-0.1,0-0.2c0.1-0.4,0.1-0.7,0.2-1.1c0,0,0-0.1,0-0.1c0-0.4,0.1-0.8,0.1-1.2
		c0-7.5-6.1-13.7-13.7-13.7c-0.4,0-0.8,0-1.2,0.1c0,0-0.1,0-0.1,0c-0.4,0-0.8,0.1-1.2,0.2c0,0-0.1,0-0.1,0c-0.4,0.1-0.8,0.2-1.1,0.3
		c0,0-0.1,0-0.1,0c-0.4,0.1-0.7,0.2-1,0.3c0,0-0.1,0-0.1,0c2.3-3.7,6.3-6,10.7-6c6.9,0,12.5,5.6,12.5,12.5c0,2.2-0.6,4.5-1.8,6.4
		c-0.1,0.1-0.1,0.3-0.1,0.5l2,5.9L33.8,31.4z"/>
	<circle class="st1" cx="17" cy="29.5" r="1"/>
	<circle class="st1" cx="21.5" cy="29.5" r="1"/>
	<circle class="st1" cx="26" cy="29.5" r="1"/>
	<path class="st2" d="M30.6,22c-1.8-3.2-5.1-5.5-8.7-5.9c-0.3,0-0.6,0.2-0.6,0.5c0,0.3,0.2,0.6,0.5,0.6c3.3,0.4,6.3,2.4,7.9,5.3
		c0.1,0.2,0.3,0.3,0.5,0.3c0.1,0,0.2,0,0.3-0.1C30.6,22.7,30.7,22.3,30.6,22z"/>
</g>
</svg>
